<?xml version='1.0'?><svg xmlns="http://www.w3.org/2000/svg" viewBox="0 0 240 240" width="240" height="240">
			<rect id="frame-background" fill="#ffffff" x="8" y="8" width="224" height="224" />
			<!-- 
Bitly Generated QR Code
v4
33x33
-->
<svg  x='30.00' y='30.00' width='180.00' height='180.00' viewBox='0 0 528 528'
xmlns='http://www.w3.org/2000/svg'
xmlns:xlink='http://www.w3.org/1999/xlink'>
	<g id='background' style='fill:#ffffff' >
<rect x="0" y="0" width="528" height="528" />
</g>
<g id='pips' style='fill:#000000' >
<path d="M0,192L16,192L32,192L32,208L16,208L0,208L0,192M0,304L16,304L16,320L16,336L32,336L32,352L16,352L16,368L16,384L32,384L32,400L16,400L0,400L0,384L0,368L0,352L0,336L0,320L0,304M16,144L32,144L32,160L16,160L16,144M16,256L32,256L32,272L48,272L48,288L32,288L32,304L16,304L16,288L16,272L16,256M32,176L48,176L48,160L48,144L48,128L64,128L80,128L80,144L64,144L64,160L64,176L80,176L80,160L80,144L96,144L96,160L112,160L112,176L96,176L96,192L80,192L64,192L64,208L80,208L96,208L96,224L80,224L64,224L64,240L48,240L48,224L48,208L48,192L32,192L32,176M32,240L48,240L48,256L32,256L32,240M48,288L64,288L64,272L80,272L80,256L96,256L112,256L112,240L96,240L96,224L112,224L128,224L128,240L144,240L160,240L160,256L176,256L176,272L176,288L176,304L160,304L160,320L160,336L160,352L160,368L144,368L144,384L160,384L176,384L176,400L160,400L160,416L160,432L160,448L144,448L144,432L128,432L128,416L128,400L112,400L96,400L80,400L80,384L96,384L112,384L112,368L96,368L80,368L80,352L96,352L112,352L112,336L128,336L128,352L144,352L144,336L128,336L128,320L144,320L144,304L144,288L128,288L112,288L112,272L96,272L96,288L80,288L80,304L80,320L96,320L112,320L112,336L96,336L80,336L64,336L64,352L64,368L48,368L48,352L48,336L48,320L64,320L64,304L48,304L48,288M64,368L80,368L80,384L64,384L64,368M96,128L112,128L128,128L128,144L112,144L96,144L96,128M96,192L112,192L112,208L96,208L96,192M96,288L112,288L112,304L96,304L96,288M128,256L128,272L144,272L144,256L128,256M112,304L128,304L128,320L112,320L112,304M128,32L144,32L144,16L160,16L176,16L176,0L192,0L192,16L192,32L208,32L224,32L224,48L208,48L208,64L192,64L192,48L176,48L160,48L144,48L144,64L128,64L128,48L128,32M128,96L144,96L144,112L128,112L128,96M128,144L144,144L160,144L160,160L144,160L144,176L128,176L128,160L128,144M128,192L144,192L144,176L160,176L160,160L176,160L176,176L192,176L192,192L208,192L224,192L240,192L240,208L256,208L256,224L240,224L240,240L224,240L208,240L192,240L192,224L208,224L208,208L192,208L192,224L176,224L176,240L160,240L160,224L144,224L144,208L128,208L128,192M128,448L144,448L144,464L160,464L160,480L144,480L128,480L128,464L128,448M160,192L160,208L176,208L176,192L160,192M144,496L160,496L160,512L176,512L192,512L208,512L208,496L224,496L224,480L224,464L208,464L192,464L192,448L208,448L224,448L224,432L208,432L208,416L208,400L192,400L192,384L208,384L224,384L224,400L240,400L256,400L256,416L256,432L272,432L272,448L288,448L304,448L304,464L288,464L288,480L288,496L304,496L304,512L288,512L272,512L256,512L256,496L272,496L272,480L256,480L256,464L240,464L240,480L240,496L240,512L256,512L256,528L240,528L224,528L208,528L192,528L176,528L160,528L144,528L144,512L144,496M160,64L176,64L176,80L176,96L176,112L160,112L160,96L160,80L160,64M160,128L176,128L176,144L160,144L160,128M160,480L176,480L176,496L160,496L160,480M176,112L192,112L192,128L176,128L176,112M176,336L192,336L192,320L192,304L208,304L208,320L208,336L208,352L224,352L224,368L208,368L192,368L192,352L176,352L176,336M176,368L192,368L192,384L176,384L176,368M176,400L192,400L192,416L176,416L176,400M176,432L192,432L192,448L176,448L176,432M176,464L192,464L192,480L176,480L176,464M192,80L208,80L208,96L208,112L192,112L192,96L192,80M192,144L208,144L224,144L224,160L224,176L208,176L192,176L192,160L192,144M192,256L208,256L208,272L224,272L240,272L240,288L224,288L224,304L208,304L208,288L192,288L192,272L192,256M208,0L224,0L224,16L208,16L208,0M208,64L224,64L224,48L240,48L240,32L224,32L224,16L240,16L256,16L256,0L272,0L272,16L288,16L304,16L304,32L320,32L320,48L304,48L304,64L304,80L320,80L320,96L304,96L304,112L288,112L288,96L272,96L272,112L256,112L256,96L240,96L240,112L224,112L224,96L224,80L208,80L208,64M224,304L240,304L240,320L256,320L256,304L272,304L272,288L288,288L288,304L304,304L320,304L336,304L336,320L336,336L320,336L320,320L304,320L288,320L288,336L288,352L288,368L288,384L304,384L304,400L304,416L304,432L288,432L272,432L272,416L288,416L288,400L272,400L256,400L256,384L240,384L224,384L224,368L240,368L256,368L272,368L272,352L256,352L240,352L240,336L224,336L224,320L224,304M256,32L256,48L272,48L272,32L256,32M256,64L256,80L272,80L272,64L256,64M240,112L256,112L256,128L256,144L256,160L272,160L272,176L288,176L288,192L272,192L256,192L256,176L240,176L240,160L240,144L240,128L240,112M240,240L256,240L272,240L288,240L288,224L304,224L304,240L320,240L320,256L304,256L288,256L272,256L256,256L256,272L240,272L240,256L240,240M240,288L256,288L256,304L240,304L240,288M256,272L272,272L272,288L256,288L256,272M272,112L288,112L288,128L304,128L320,128L320,144L336,144L336,160L352,160L352,176L336,176L336,192L320,192L320,176L320,160L304,160L304,176L288,176L288,160L272,160L272,144L272,128L272,112M288,192L304,192L320,192L320,208L320,224L304,224L304,208L288,208L288,192M288,272L304,272L304,288L288,288L288,272M304,0L320,0L336,0L336,16L352,16L352,0L368,0L368,16L368,32L352,32L352,48L368,48L368,32L384,32L384,16L384,0L400,0L400,16L400,32L400,48L400,64L384,64L384,80L368,80L368,96L368,112L352,112L352,96L336,96L336,80L320,80L320,64L336,64L336,48L336,32L320,32L320,16L304,16L304,0M304,336L320,336L320,352L304,352L304,336M304,368L320,368L320,352L336,352L336,336L352,336L352,352L368,352L384,352L384,368L400,368L400,384L416,384L432,384L432,368L416,368L416,352L416,336L416,320L432,320L448,320L448,336L432,336L432,352L448,352L448,368L464,368L464,384L464,400L464,416L464,432L480,432L496,432L512,432L512,448L512,464L512,480L496,480L496,464L480,464L464,464L448,464L448,480L432,480L432,464L416,464L416,480L400,480L400,464L384,464L368,464L368,480L352,480L336,480L336,496L336,512L336,528L320,528L304,528L304,512L320,512L320,496L320,480L304,480L304,464L320,464L320,448L320,432L320,416L336,416L336,432L352,432L368,432L368,448L384,448L384,432L368,432L368,416L352,416L336,416L336,400L352,400L368,400L368,384L368,368L352,368L336,368L336,384L320,384L304,384L304,368M320,96L336,96L336,112L336,128L320,128L320,112L320,96M320,224L336,224L336,240L320,240L320,224M320,272L336,272L336,288L320,288L320,272M336,192L352,192L368,192L368,208L384,208L384,192L400,192L400,208L416,208L416,224L432,224L432,240L416,240L416,256L432,256L448,256L448,240L448,224L464,224L464,240L464,256L480,256L480,240L496,240L512,240L512,256L496,256L496,272L480,272L480,288L496,288L496,304L496,320L480,320L480,336L464,336L464,320L448,320L448,304L464,304L464,288L448,288L448,304L432,304L432,288L416,288L416,272L400,272L400,256L384,256L384,240L400,240L400,224L384,224L368,224L352,224L336,224L336,208L336,192M336,288L352,288L352,304L336,304L336,288M352,128L368,128L368,112L384,112L384,128L384,144L384,160L384,176L368,176L368,160L368,144L352,144L352,128M352,272L368,272L368,288L352,288L352,272M352,320L368,320L368,336L352,336L352,320M352,496L368,496L384,496L384,512L400,512L416,512L416,528L400,528L384,528L368,528L368,512L352,512L352,496M368,288L384,288L384,304L400,304L416,304L416,320L400,320L384,320L368,320L368,304L368,288M384,80L400,80L400,96L400,112L384,112L384,96L384,80M384,272L400,272L400,288L384,288L384,272M384,336L400,336L400,352L384,352L384,336M400,400L400,416L400,432L400,448L416,448L432,448L448,448L448,432L448,416L448,400L432,400L416,400L400,400M384,480L400,480L400,496L384,496L384,480M400,144L416,144L416,160L416,176L400,176L400,160L400,144M416,176L432,176L432,160L432,144L448,144L464,144L464,128L480,128L496,128L496,144L496,160L480,160L480,176L464,176L464,160L448,160L448,176L464,176L464,192L464,208L448,208L448,192L432,192L432,208L416,208L416,192L416,176M416,416L432,416L432,432L416,432L416,416M448,336L464,336L464,352L448,352L448,336M480,176L496,176L496,192L512,192L512,176L496,176L496,160L512,160L528,160L528,176L528,192L528,208L512,208L512,224L496,224L480,224L480,208L480,192L480,176M480,352L496,352L496,368L496,384L480,384L480,368L480,352M496,272L512,272L528,272L528,288L528,304L528,320L512,320L512,304L512,288L496,288L496,272M496,320L512,320L512,336L512,352L496,352L496,336L496,320M496,384L512,384L512,368L512,352L528,352L528,368L528,384L528,400L512,400L512,416L496,416L496,400L496,384Z" />
<path d="M4.7253,9.0689C6.179,9.0436 6.4149,7.6154 6.4149,6.769C6.4149,5.5163 5.775,5.0788 5,5C4.0425,5.4242 3.3403,6.146 3.2555,7.2606C3.2416,7.4443 3.237,7.6894 3.2516,7.9757C3.2906,8.7383 3.8493,9.0843 4.7253,9.0689 M 12.2447 10.8068 C 11.2047 10.8068 10.1118 10.1673 10.06 8.9707 C 8.8774 10.2223 7.0538 10.8186 4.7253 10.8186 C 2.3769 10.8186 1.396 9.2175 1.396 7.9703 C 1.4554 3.8126 1.3605 2.255 1.341 1.9353 C 1.3393 1.907 1.3381 1.8884 1.3377 1.8785 L 1.3373 1.8677 C 1.3313 1.7096 1.3224 1.4733 1.172 1.4572 C 1.0786 1.4472 1.0183 1.4757 0.911 1.6094 C 0.75 1.8233 0.425 1.908 0.2273 1.7937 C -0.0116 1.6555 -0.0562 1.3505 0.0647 1.0697 C 0.4002 0.3212 0.9379 -0.01 1.6625 0.0003 C 2.9146 0.0182 3.2738 0.8359 3.2738 1.8575 C 3.2738 1.8575 3.246 3.3292 3.246 4.1579 C 3.689 3.7969 4.3397 3.4098 5.4266 3.4098 C 7.6899 3.4098 9.1267 6.2118 7.6503 8.8925 C 9.5428 8.0197 9.9378 6.5164 10.0112 5.0238 L 10.0043 4.5203 C 10.0043 3.9552 10.3688 3.4767 10.9361 3.4767 C 11.5034 3.4767 11.8802 3.9877 11.86 4.5271 C 11.7919 6.3438 11.7644 7.5395 11.7644 8.1722 C 11.7644 8.5384 11.9642 9.0996 12.5555 9.0996 C 13.7134 9.0996 14.094 8.1922 14.1838 6.0595 C 14.1885 5.2642 14.1927 4.5997 14.1927 4.5997 C 13.6679 4.5997 13.4094 4.324 13.4094 3.9795 C 13.4094 3.635 13.683 3.3163 14.1321 3.3163 C 14.1321 3.3163 14.133 2.1182 14.133 1.622 C 14.133 1.0569 14.5715 0.5883 15.1388 0.5883 C 15.7062 0.5883 16.1567 1.0569 16.1567 1.622 C 16.1567 1.8095 16.1495 2.028 16.1416 2.2695 C 16.1315 2.5784 16.1201 2.9246 16.121 3.2909 L 16.2032 3.2905 H 16.2032 C 16.357 3.29 16.7051 3.2888 17.1681 3.2834 C 17.7198 3.2769 17.9445 3.5851 17.9445 3.9709 C 17.9445 4.3567 17.6475 4.626 17.2602 4.6276 C 16.9012 4.6291 16.1083 4.6247 16.1083 4.6247 C 16.0723 5.7674 16.0382 7.1451 16.0382 8.2475 C 16.0382 8.6451 16.3126 9.0995 16.9767 9.0995 C 18.3163 9.0995 18.8167 7.9092 18.9173 5.6498 C 18.9095 4.0766 18.8907 3.1653 18.8765 2.4785 V 2.4785 C 18.8666 1.9969 18.859 1.6258 18.859 1.2143 C 18.859 0.6493 19.3295 0.1442 19.8967 0.1442 C 20.4641 0.1442 20.8826 0.5977 20.8826 1.1627 C 20.8826 1.598 20.8651 2.1069 20.8413 2.8009 V 2.8009 V 2.801 C 20.801 3.9747 20.7425 5.6778 20.7195 8.4504 C 20.7165 8.8195 20.8967 9.0795 21.3748 9.0795 C 22.6524 9.0795 23.0066 7.6955 23.119 5.7625 C 23.1197 5.6695 23.1205 5.5785 23.1214 5.4891 L 23.1214 5.4887 C 23.1231 5.3054 23.1247 5.1289 23.1247 4.9561 C 23.1247 4.391 23.5011 3.9337 24.0686 3.9337 C 24.6359 3.9337 24.9694 4.4022 24.9694 4.9673 C 24.9694 5.3698 24.9562 5.7464 24.9427 6.1348 C 24.9307 6.4777 24.9184 6.8299 24.9146 7.2176 C 24.9047 8.2151 25.2455 9.0938 26.0756 9.0914 C 26.8726 9.0891 27.7479 8.7536 27.7691 7.045 C 27.7751 6.5701 27.7683 6.2053 27.7615 5.8371 V 5.837 V 5.8369 V 5.8368 C 27.7564 5.5642 27.7513 5.2897 27.7513 4.9673 C 27.7513 4.4022 28.1451 3.9337 28.7125 3.9337 C 29.2795 3.9337 29.6737 4.4022 29.6737 4.9673 C 29.6737 5.3051 29.6614 5.6415 29.6477 6.0145 V 6.0145 V 6.0146 V 6.0146 C 29.6307 6.4783 29.6117 6.9984 29.6117 7.6477 C 29.6117 7.6477 29.5769 10.0141 29.66 10.5378 C 29.9203 10.4512 30.2958 10.1968 30.6935 9.5802 C 30.9337 9.208 31.3928 9.1282 31.6758 9.293 C 32.0653 9.52 32.0514 9.9635 31.9058 10.2875 C 31.5298 11.1239 31.0409 11.6358 29.8047 12.0595 C 29.8086 13.4782 29.7098 15.5713 27.0868 15.9496 C 24.8405 16.2735 23.8244 14.9708 23.8211 13.8623 C 23.8157 12.112 25.5649 11.6022 28.0897 10.9665 L 28.0087 10.099 C 28.0087 10.099 27.4464 10.8364 26.0215 10.8008 C 24.9223 10.7733 24.1663 10.2543 23.7077 9.5213 C 23.1787 10.3901 22.3495 10.8105 21.1004 10.8105 C 20.2775 10.8105 19.4934 10.3758 19.1051 9.7457 C 18.5325 10.4308 17.7339 10.8015 16.6607 10.8015 C 15.7256 10.8015 15.0346 10.4786 14.6209 9.9746 C 14.087 10.5712 13.318 10.8068 12.2447 10.8068 Z M 28.2548 12.363 C 26.9786 12.6385 25.3798 13.0407 25.3983 13.8266 C 25.4158 14.5636 26.1767 14.6977 26.8111 14.5666 C 28.1286 14.2943 28.2816 13.5015 28.2548 12.363 Z M 11.9704 1.6249 C 11.9704 1.0544 11.5073 0.5932 10.9347 0.5932 C 10.3619 0.5932 9.8989 1.0544 9.8989 1.6249 C 9.8989 2.1953 10.3619 2.6566 10.9347 2.6566 C 11.5073 2.6566 11.9704 2.1953 11.9704 1.6249 Z" fill='#000000' transform='translate(456.000000, 492.000000) scale(2.250000, 2.250000)' />
</g>
<g id='corners-outer-1' transform="translate(0, 0) scale(5.60, 5.60) " style='fill:#000000' >
<path d="M 17.14 0 H 2 C 0.9 0 0 0.9 0 2 V 18 C 0 19.1 0.9 20 2 20 H 18 C 19.1 20 20 19.1 20 18 V 2 C 20 0.9 19.1 0 18 0 H 17.14 Z M 17.14 5.71 V 15.14 C 17.14 16.25 16.25 17.14 15.14 17.14 H 4.86 C 3.75 17.14 2.86 16.25 2.86 15.14 V 4.86 C 2.86 3.75 3.75 2.86 4.86 2.86 H 15.14 C 16.25 2.86 17.14 3.75 17.14 4.86 V 5.71 Z" />
</g>
<g id='corners-inner-1' transform="translate(32, 32) scale(5.60, 5.60) " style='fill:#000000' >
<path d="M 5.64 0 H 1 C 0.45 0 0 0.45 0 1 V 7.46 C 0 8.01 0.45 8.46 1 8.46 H 7.46 C 8.01 8.46 8.46 8.01 8.46 7.46 V 1 C 8.46 0.45 8.01 0 7.46 0 H 5.64 Z" />
</g>
<g id='corners-outer-2' transform="translate(416, 0) scale(5.60, 5.60) " style='fill:#000000' >
<path d="M 17.14 0 H 2 C 0.9 0 0 0.9 0 2 V 18 C 0 19.1 0.9 20 2 20 H 18 C 19.1 20 20 19.1 20 18 V 2 C 20 0.9 19.1 0 18 0 H 17.14 Z M 17.14 5.71 V 15.14 C 17.14 16.25 16.25 17.14 15.14 17.14 H 4.86 C 3.75 17.14 2.86 16.25 2.86 15.14 V 4.86 C 2.86 3.75 3.75 2.86 4.86 2.86 H 15.14 C 16.25 2.86 17.14 3.75 17.14 4.86 V 5.71 Z" />
</g>
<g id='corners-inner-2' transform="translate(448, 32) scale(5.60, 5.60) " style='fill:#000000' >
<path d="M 5.64 0 H 1 C 0.45 0 0 0.45 0 1 V 7.46 C 0 8.01 0.45 8.46 1 8.46 H 7.46 C 8.01 8.46 8.46 8.01 8.46 7.46 V 1 C 8.46 0.45 8.01 0 7.46 0 H 5.64 Z" />
</g>
<g id='corners-outer-3' transform="translate(0, 416) scale(5.60, 5.60) " style='fill:#000000' >
<path d="M 17.14 0 H 2 C 0.9 0 0 0.9 0 2 V 18 C 0 19.1 0.9 20 2 20 H 18 C 19.1 20 20 19.1 20 18 V 2 C 20 0.9 19.1 0 18 0 H 17.14 Z M 17.14 5.71 V 15.14 C 17.14 16.25 16.25 17.14 15.14 17.14 H 4.86 C 3.75 17.14 2.86 16.25 2.86 15.14 V 4.86 C 2.86 3.75 3.75 2.86 4.86 2.86 H 15.14 C 16.25 2.86 17.14 3.75 17.14 4.86 V 5.71 Z" />
</g>
<g id='corners-inner-3' transform="translate(32, 448) scale(5.60, 5.60) " style='fill:#000000' >
<path d="M 5.64 0 H 1 C 0.45 0 0 0.45 0 1 V 7.46 C 0 8.01 0.45 8.46 1 8.46 H 7.46 C 8.01 8.46 8.46 8.01 8.46 7.46 V 1 C 8.46 0.45 8.01 0 7.46 0 H 5.64 Z" />
</g>
</svg>
<g id="frame-sections">
				<path fill="#000000" d="M222,10a8,8,0,0,1,8,8V222a8,8,0,0,1-8,8H18a8,8,0,0,1-8-8V18a8,8,0,0,1,8-8H222m0-10H18A18,18,0,0,0,0,18V222a18,18,0,0,0,18,18H222a18,18,0,0,0,18-18V18A18,18,0,0,0,222,0Z"/>
			</g>
			</svg>