<?xml version='1.0'?><svg xmlns="http://www.w3.org/2000/svg" viewBox="0 0 240 240" width="240" height="240">
			<rect id="frame-background" fill="#ffffff" x="8" y="8" width="224" height="224" />
			<!-- 
Bitly Generated QR Code
v4
33x33
-->
<svg  x='30.00' y='30.00' width='180.00' height='180.00' viewBox='0 0 528 528'
xmlns='http://www.w3.org/2000/svg'
xmlns:xlink='http://www.w3.org/1999/xlink'>
	<g id='background' style='fill:#ffffff' >
<rect x="0" y="0" width="528" height="528" />
</g>
<g id='pips' style='fill:#000000' >
<path d="M2.4,160L13.6,160A2.4,2.4,0,0,1,16,162.4L16,173.6A2.4,2.4,0,0,1,13.6,176L2.4,176A2.4,2.4,0,0,1,0,173.6L0,162.4A2.4,2.4,0,0,1,2.4,160M2.4,192L13.6,192A2.4,2.4,0,0,1,16,194.4L16,205.6A2.4,2.4,0,0,0,18.4,208L32,208L45.6,208A2.4,2.4,0,0,0,48,205.6L48,194.4A2.4,2.4,0,0,0,45.6,192L34.4,192A2.4,2.4,0,0,1,32,189.6L32,178.4A2.4,2.4,0,0,1,34.4,176L45.6,176A2.4,2.4,0,0,0,48,173.6L48,162.4A2.4,2.4,0,0,0,45.6,160L32,160L18.4,160A2.4,2.4,0,0,1,16,157.6L16,146.4A2.4,2.4,0,0,1,18.4,144L29.6,144A2.4,2.4,0,0,0,32,141.6L32,130.4A2.4,2.4,0,0,1,34.4,128L45.6,128A2.4,2.4,0,0,1,48,130.4L48,141.6A2.4,2.4,0,0,0,50.4,144L61.6,144A2.4,2.4,0,0,1,64,146.4L64,157.6A2.4,2.4,0,0,0,66.4,160L77.6,160A2.4,2.4,0,0,1,80,162.4L80,176L80,189.6A2.4,2.4,0,0,1,77.6,192L66.4,192A2.4,2.4,0,0,0,64,194.4L64,208L64,221.6A2.4,2.4,0,0,0,66.4,224L77.6,224A2.4,2.4,0,0,1,80,226.4L80,237.6A2.4,2.4,0,0,1,77.6,240L64,240L48,240L34.4,240A2.4,2.4,0,0,1,32,237.6L32,226.4A2.4,2.4,0,0,0,29.6,224L16,224L2.4,224A2.4,2.4,0,0,1,0,221.6L0,208L0,194.4A2.4,2.4,0,0,1,2.4,192M2.4,272L16,272L32,272L48,272L61.6,272A2.4,2.4,0,0,1,64,274.4L64,285.6A2.4,2.4,0,0,0,66.4,288L77.6,288A2.4,2.4,0,0,1,80,290.4L80,304L80,320L80,336L80,349.6A2.4,2.4,0,0,0,82.4,352L96,352L109.6,352A2.4,2.4,0,0,1,112,354.4L112,365.6A2.4,2.4,0,0,1,109.6,368L98.4,368A2.4,2.4,0,0,0,96,370.4L96,381.6A2.4,2.4,0,0,0,98.4,384L109.6,384A2.4,2.4,0,0,1,112,386.4L112,397.6A2.4,2.4,0,0,1,109.6,400L96,400L82.4,400A2.4,2.4,0,0,1,80,397.6L80,384L80,370.4A2.4,2.4,0,0,0,77.6,368L66.4,368A2.4,2.4,0,0,1,64,365.6L64,354.4A2.4,2.4,0,0,0,61.6,352L48,352L34.4,352A2.4,2.4,0,0,0,32,354.4L32,365.6A2.4,2.4,0,0,1,29.6,368L16,368L2.4,368A2.4,2.4,0,0,1,0,365.6L0,354.4A2.4,2.4,0,0,1,2.4,352L13.6,352A2.4,2.4,0,0,0,16,349.6L16,338.4A2.4,2.4,0,0,1,18.4,336L29.6,336A2.4,2.4,0,0,0,32,333.6L32,322.4A2.4,2.4,0,0,1,34.4,320L45.6,320A2.4,2.4,0,0,0,48,317.6L48,306.4A2.4,2.4,0,0,0,45.6,304L34.4,304A2.4,2.4,0,0,0,32,306.4L32,317.6A2.4,2.4,0,0,1,29.6,320L18.4,320A2.4,2.4,0,0,1,16,317.6L16,304L16,290.4A2.4,2.4,0,0,0,13.6,288L2.4,288A2.4,2.4,0,0,1,0,285.6L0,274.4A2.4,2.4,0,0,1,2.4,272M2.4,320L13.6,320A2.4,2.4,0,0,1,16,322.4L16,333.6A2.4,2.4,0,0,1,13.6,336L2.4,336A2.4,2.4,0,0,1,0,333.6L0,322.4A2.4,2.4,0,0,1,2.4,320M2.4,384L16,384L32,384L45.6,384A2.4,2.4,0,0,1,48,386.4L48,397.6A2.4,2.4,0,0,1,45.6,400L32,400L16,400L2.4,400A2.4,2.4,0,0,1,0,397.6L0,386.4A2.4,2.4,0,0,1,2.4,384M66.4,256L77.6,256A2.4,2.4,0,0,1,80,258.4L80,269.6A2.4,2.4,0,0,1,77.6,272L66.4,272A2.4,2.4,0,0,1,64,269.6L64,258.4A2.4,2.4,0,0,1,66.4,256M82.4,128L96,128L112,128L128,128L141.6,128A2.4,2.4,0,0,1,144,130.4L144,141.6A2.4,2.4,0,0,1,141.6,144L128,144L112,144L98.4,144A2.4,2.4,0,0,0,96,146.4L96,157.6A2.4,2.4,0,0,1,93.6,160L82.4,160A2.4,2.4,0,0,1,80,157.6L80,144L80,130.4A2.4,2.4,0,0,1,82.4,128M82.4,208L93.6,208A2.4,2.4,0,0,1,96,210.4L96,221.6A2.4,2.4,0,0,1,93.6,224L82.4,224A2.4,2.4,0,0,1,80,221.6L80,210.4A2.4,2.4,0,0,1,82.4,208M82.4,240L93.6,240A2.4,2.4,0,0,1,96,242.4L96,253.6A2.4,2.4,0,0,1,93.6,256L82.4,256A2.4,2.4,0,0,1,80,253.6L80,242.4A2.4,2.4,0,0,1,82.4,240M98.4,160L112,160L128,160L141.6,160A2.4,2.4,0,0,1,144,162.4L144,173.6A2.4,2.4,0,0,1,141.6,176L128,176L112,176L98.4,176A2.4,2.4,0,0,1,96,173.6L96,162.4A2.4,2.4,0,0,1,98.4,160M98.4,192L109.6,192A2.4,2.4,0,0,1,112,194.4L112,205.6A2.4,2.4,0,0,1,109.6,208L98.4,208A2.4,2.4,0,0,1,96,205.6L96,194.4A2.4,2.4,0,0,1,98.4,192M98.4,224L109.6,224A2.4,2.4,0,0,0,112,221.6L112,210.4A2.4,2.4,0,0,1,114.4,208L125.6,208A2.4,2.4,0,0,0,128,205.6L128,194.4A2.4,2.4,0,0,1,130.4,192L141.6,192A2.4,2.4,0,0,0,144,189.6L144,178.4A2.4,2.4,0,0,1,146.4,176L157.6,176A2.4,2.4,0,0,1,160,178.4L160,192L160,205.6A2.4,2.4,0,0,0,162.4,208L173.6,208A2.4,2.4,0,0,0,176,205.6L176,192L176,178.4A2.4,2.4,0,0,1,178.4,176L189.6,176A2.4,2.4,0,0,0,192,173.6L192,162.4A2.4,2.4,0,0,1,194.4,160L205.6,160A2.4,2.4,0,0,1,208,162.4L208,176L208,189.6A2.4,2.4,0,0,1,205.6,192L194.4,192A2.4,2.4,0,0,0,192,194.4L192,205.6A2.4,2.4,0,0,0,194.4,208L205.6,208A2.4,2.4,0,0,1,208,210.4L208,221.6A2.4,2.4,0,0,1,205.6,224L192,224L178.4,224A2.4,2.4,0,0,0,176,226.4L176,240L176,253.6A2.4,2.4,0,0,1,173.6,256L162.4,256A2.4,2.4,0,0,0,160,258.4L160,269.6A2.4,2.4,0,0,1,157.6,272L146.4,272A2.4,2.4,0,0,1,144,269.6L144,256L144,242.4A2.4,2.4,0,0,1,146.4,240L157.6,240A2.4,2.4,0,0,0,160,237.6L160,226.4A2.4,2.4,0,0,0,157.6,224L146.4,224A2.4,2.4,0,0,0,144,226.4L144,237.6A2.4,2.4,0,0,1,141.6,240L130.4,240A2.4,2.4,0,0,0,128,242.4L128,253.6A2.4,2.4,0,0,1,125.6,256L114.4,256A2.4,2.4,0,0,1,112,253.6L112,242.4A2.4,2.4,0,0,0,109.6,240L98.4,240A2.4,2.4,0,0,1,96,237.6L96,226.4A2.4,2.4,0,0,1,98.4,224M98.4,256L109.6,256A2.4,2.4,0,0,1,112,258.4L112,269.6A2.4,2.4,0,0,1,109.6,272L98.4,272A2.4,2.4,0,0,1,96,269.6L96,258.4A2.4,2.4,0,0,1,98.4,256M98.4,288L109.6,288A2.4,2.4,0,0,1,112,290.4L112,301.6A2.4,2.4,0,0,1,109.6,304L98.4,304A2.4,2.4,0,0,1,96,301.6L96,290.4A2.4,2.4,0,0,1,98.4,288M98.4,320L112,320L128,320L141.6,320A2.4,2.4,0,0,1,144,322.4L144,333.6A2.4,2.4,0,0,1,141.6,336L130.4,336A2.4,2.4,0,0,0,128,338.4L128,349.6A2.4,2.4,0,0,1,125.6,352L114.4,352A2.4,2.4,0,0,1,112,349.6L112,338.4A2.4,2.4,0,0,0,109.6,336L98.4,336A2.4,2.4,0,0,1,96,333.6L96,322.4A2.4,2.4,0,0,1,98.4,320M114.4,368L128,368L141.6,368A2.4,2.4,0,0,1,144,370.4L144,384L144,397.6A2.4,2.4,0,0,0,146.4,400L157.6,400A2.4,2.4,0,0,1,160,402.4L160,416L160,429.6A2.4,2.4,0,0,0,162.4,432L173.6,432A2.4,2.4,0,0,1,176,434.4L176,448L176,461.6A2.4,2.4,0,0,0,178.4,464L189.6,464A2.4,2.4,0,0,1,192,466.4L192,477.6A2.4,2.4,0,0,1,189.6,480L178.4,480A2.4,2.4,0,0,0,176,482.4L176,493.6A2.4,2.4,0,0,1,173.6,496L162.4,496A2.4,2.4,0,0,1,160,493.6L160,482.4A2.4,2.4,0,0,0,157.6,480L146.4,480A2.4,2.4,0,0,1,144,477.6L144,466.4A2.4,2.4,0,0,1,146.4,464L157.6,464A2.4,2.4,0,0,0,160,461.6L160,450.4A2.4,2.4,0,0,0,157.6,448L144,448L130.4,448A2.4,2.4,0,0,1,128,445.6L128,432L128,416L128,400L128,386.4A2.4,2.4,0,0,0,125.6,384L114.4,384A2.4,2.4,0,0,1,112,381.6L112,370.4A2.4,2.4,0,0,1,114.4,368M130.4,16L141.6,16A2.4,2.4,0,0,1,144,18.4L144,29.6A2.4,2.4,0,0,0,146.4,32L157.6,32A2.4,2.4,0,0,0,160,29.6L160,18.4A2.4,2.4,0,0,1,162.4,16L173.6,16A2.4,2.4,0,0,0,176,13.6L176,2.4A2.4,2.4,0,0,1,178.4,0L189.6,0A2.4,2.4,0,0,1,192,2.4L192,13.6A2.4,2.4,0,0,0,194.4,16L205.6,16A2.4,2.4,0,0,1,208,18.4L208,32L208,45.6A2.4,2.4,0,0,1,205.6,48L194.4,48A2.4,2.4,0,0,1,192,45.6L192,34.4A2.4,2.4,0,0,0,189.6,32L178.4,32A2.4,2.4,0,0,0,176,34.4L176,45.6A2.4,2.4,0,0,1,173.6,48L160,48L146.4,48A2.4,2.4,0,0,0,144,50.4L144,61.6A2.4,2.4,0,0,0,146.4,64L157.6,64A2.4,2.4,0,0,1,160,66.4L160,80L160,93.6A2.4,2.4,0,0,1,157.6,96L146.4,96A2.4,2.4,0,0,0,144,98.4L144,109.6A2.4,2.4,0,0,1,141.6,112L130.4,112A2.4,2.4,0,0,1,128,109.6L128,96L128,80L128,64L128,48L128,32L128,18.4A2.4,2.4,0,0,1,130.4,16M130.4,272L141.6,272A2.4,2.4,0,0,1,144,274.4L144,288L144,301.6A2.4,2.4,0,0,1,141.6,304L130.4,304A2.4,2.4,0,0,1,128,301.6L128,288L128,274.4A2.4,2.4,0,0,1,130.4,272M130.4,480L141.6,480A2.4,2.4,0,0,1,144,482.4L144,493.6A2.4,2.4,0,0,1,141.6,496L130.4,496A2.4,2.4,0,0,1,128,493.6L128,482.4A2.4,2.4,0,0,1,130.4,480M146.4,0L157.6,0A2.4,2.4,0,0,1,160,2.4L160,13.6A2.4,2.4,0,0,1,157.6,16L146.4,16A2.4,2.4,0,0,1,144,13.6L144,2.4A2.4,2.4,0,0,1,146.4,0M146.4,144L157.6,144A2.4,2.4,0,0,1,160,146.4L160,157.6A2.4,2.4,0,0,1,157.6,160L146.4,160A2.4,2.4,0,0,1,144,157.6L144,146.4A2.4,2.4,0,0,1,146.4,144M146.4,304L157.6,304A2.4,2.4,0,0,0,160,301.6L160,290.4A2.4,2.4,0,0,1,162.4,288L173.6,288A2.4,2.4,0,0,1,176,290.4L176,304L176,317.6A2.4,2.4,0,0,1,173.6,320L160,320L146.4,320A2.4,2.4,0,0,1,144,317.6L144,306.4A2.4,2.4,0,0,1,146.4,304M146.4,336L157.6,336A2.4,2.4,0,0,1,160,338.4L160,349.6A2.4,2.4,0,0,1,157.6,352L146.4,352A2.4,2.4,0,0,1,144,349.6L144,338.4A2.4,2.4,0,0,1,146.4,336M146.4,496L157.6,496A2.4,2.4,0,0,1,160,498.4L160,509.6A2.4,2.4,0,0,0,162.4,512L173.6,512A2.4,2.4,0,0,0,176,509.6L176,498.4A2.4,2.4,0,0,1,178.4,496L189.6,496A2.4,2.4,0,0,0,192,493.6L192,482.4A2.4,2.4,0,0,1,194.4,480L205.6,480A2.4,2.4,0,0,1,208,482.4L208,496L208,509.6A2.4,2.4,0,0,0,210.4,512L221.6,512A2.4,2.4,0,0,1,224,514.4L224,525.6A2.4,2.4,0,0,1,221.6,528L208,528L192,528L176,528L160,528L146.4,528A2.4,2.4,0,0,1,144,525.6L144,512L144,498.4A2.4,2.4,0,0,1,146.4,496M162.4,96L173.6,96A2.4,2.4,0,0,1,176,98.4L176,109.6A2.4,2.4,0,0,0,178.4,112L189.6,112A2.4,2.4,0,0,0,192,109.6L192,98.4A2.4,2.4,0,0,1,194.4,96L205.6,96A2.4,2.4,0,0,1,208,98.4L208,112L208,128L208,141.6A2.4,2.4,0,0,1,205.6,144L194.4,144A2.4,2.4,0,0,0,192,146.4L192,157.6A2.4,2.4,0,0,1,189.6,160L178.4,160A2.4,2.4,0,0,1,176,157.6L176,146.4A2.4,2.4,0,0,0,173.6,144L162.4,144A2.4,2.4,0,0,1,160,141.6L160,128L160,112L160,98.4A2.4,2.4,0,0,1,162.4,96M162.4,368L173.6,368A2.4,2.4,0,0,1,176,370.4L176,381.6A2.4,2.4,0,0,1,173.6,384L162.4,384A2.4,2.4,0,0,1,160,381.6L160,370.4A2.4,2.4,0,0,1,162.4,368M178.4,80L189.6,80A2.4,2.4,0,0,1,192,82.4L192,93.6A2.4,2.4,0,0,1,189.6,96L178.4,96A2.4,2.4,0,0,1,176,93.6L176,82.4A2.4,2.4,0,0,1,178.4,80M178.4,272L189.6,272A2.4,2.4,0,0,1,192,274.4L192,285.6A2.4,2.4,0,0,1,189.6,288L178.4,288A2.4,2.4,0,0,1,176,285.6L176,274.4A2.4,2.4,0,0,1,178.4,272M178.4,320L192,320L205.6,320A2.4,2.4,0,0,1,208,322.4L208,333.6A2.4,2.4,0,0,1,205.6,336L194.4,336A2.4,2.4,0,0,0,192,338.4L192,349.6A2.4,2.4,0,0,1,189.6,352L178.4,352A2.4,2.4,0,0,1,176,349.6L176,336L176,322.4A2.4,2.4,0,0,1,178.4,320M178.4,400L189.6,400A2.4,2.4,0,0,1,192,402.4L192,416L192,429.6A2.4,2.4,0,0,1,189.6,432L178.4,432A2.4,2.4,0,0,1,176,429.6L176,416L176,402.4A2.4,2.4,0,0,1,178.4,400M194.4,240L205.6,240A2.4,2.4,0,0,1,208,242.4L208,253.6A2.4,2.4,0,0,0,210.4,256L221.6,256A2.4,2.4,0,0,1,224,258.4L224,269.6A2.4,2.4,0,0,0,226.4,272L237.6,272A2.4,2.4,0,0,1,240,274.4L240,285.6A2.4,2.4,0,0,1,237.6,288L224,288L210.4,288A2.4,2.4,0,0,1,208,285.6L208,274.4A2.4,2.4,0,0,0,205.6,272L194.4,272A2.4,2.4,0,0,1,192,269.6L192,256L192,242.4A2.4,2.4,0,0,1,194.4,240M194.4,352L205.6,352A2.4,2.4,0,0,0,208,349.6L208,338.4A2.4,2.4,0,0,1,210.4,336L224,336L237.6,336A2.4,2.4,0,0,0,240,333.6L240,322.4A2.4,2.4,0,0,1,242.4,320L253.6,320A2.4,2.4,0,0,0,256,317.6L256,306.4A2.4,2.4,0,0,1,258.4,304L269.6,304A2.4,2.4,0,0,1,272,306.4L272,317.6A2.4,2.4,0,0,0,274.4,320L288,320L301.6,320A2.4,2.4,0,0,1,304,322.4L304,333.6A2.4,2.4,0,0,0,306.4,336L320,336L336,336L352,336L365.6,336A2.4,2.4,0,0,1,368,338.4L368,349.6A2.4,2.4,0,0,1,365.6,352L354.4,352A2.4,2.4,0,0,0,352,354.4L352,365.6A2.4,2.4,0,0,1,349.6,368L338.4,368A2.4,2.4,0,0,0,336,370.4L336,381.6A2.4,2.4,0,0,1,333.6,384L320,384L304,384L290.4,384A2.4,2.4,0,0,1,288,381.6L288,370.4A2.4,2.4,0,0,0,285.6,368L272,368L258.4,368A2.4,2.4,0,0,1,256,365.6L256,354.4A2.4,2.4,0,0,1,258.4,352L269.6,352A2.4,2.4,0,0,0,272,349.6L272,338.4A2.4,2.4,0,0,0,269.6,336L258.4,336A2.4,2.4,0,0,0,256,338.4L256,349.6A2.4,2.4,0,0,1,253.6,352L242.4,352A2.4,2.4,0,0,0,240,354.4L240,365.6A2.4,2.4,0,0,1,237.6,368L224,368L210.4,368A2.4,2.4,0,0,0,208,370.4L208,381.6A2.4,2.4,0,0,1,205.6,384L194.4,384A2.4,2.4,0,0,1,192,381.6L192,368L192,354.4A2.4,2.4,0,0,1,194.4,352M194.4,448L205.6,448A2.4,2.4,0,0,1,208,450.4L208,461.6A2.4,2.4,0,0,1,205.6,464L194.4,464A2.4,2.4,0,0,1,192,461.6L192,450.4A2.4,2.4,0,0,1,194.4,448M210.4,0L221.6,0A2.4,2.4,0,0,1,224,2.4L224,13.6A2.4,2.4,0,0,1,221.6,16L210.4,16A2.4,2.4,0,0,1,208,13.6L208,2.4A2.4,2.4,0,0,1,210.4,0M210.4,144L221.6,144A2.4,2.4,0,0,0,224,141.6L224,128L224,112L224,98.4A2.4,2.4,0,0,1,226.4,96L237.6,96A2.4,2.4,0,0,1,240,98.4L240,109.6A2.4,2.4,0,0,0,242.4,112L253.6,112A2.4,2.4,0,0,1,256,114.4L256,128L256,144L256,157.6A2.4,2.4,0,0,1,253.6,160L240,160L224,160L210.4,160A2.4,2.4,0,0,1,208,157.6L208,146.4A2.4,2.4,0,0,1,210.4,144M210.4,192L224,192L237.6,192A2.4,2.4,0,0,1,240,194.4L240,205.6A2.4,2.4,0,0,1,237.6,208L224,208L210.4,208A2.4,2.4,0,0,1,208,205.6L208,194.4A2.4,2.4,0,0,1,210.4,192M210.4,224L221.6,224A2.4,2.4,0,0,1,224,226.4L224,237.6A2.4,2.4,0,0,1,221.6,240L210.4,240A2.4,2.4,0,0,1,208,237.6L208,226.4A2.4,2.4,0,0,1,210.4,224M210.4,304L221.6,304A2.4,2.4,0,0,1,224,306.4L224,317.6A2.4,2.4,0,0,1,221.6,320L210.4,320A2.4,2.4,0,0,1,208,317.6L208,306.4A2.4,2.4,0,0,1,210.4,304M210.4,416L221.6,416A2.4,2.4,0,0,1,224,418.4L224,429.6A2.4,2.4,0,0,1,221.6,432L210.4,432A2.4,2.4,0,0,1,208,429.6L208,418.4A2.4,2.4,0,0,1,210.4,416M226.4,16L240,16L253.6,16A2.4,2.4,0,0,0,256,13.6L256,2.4A2.4,2.4,0,0,1,258.4,0L272,0L285.6,0A2.4,2.4,0,0,1,288,2.4L288,13.6A2.4,2.4,0,0,1,285.6,16L274.4,16A2.4,2.4,0,0,0,272,18.4L272,29.6A2.4,2.4,0,0,1,269.6,32L258.4,32A2.4,2.4,0,0,0,256,34.4L256,48L256,61.6A2.4,2.4,0,0,0,258.4,64L269.6,64A2.4,2.4,0,0,1,272,66.4L272,77.6A2.4,2.4,0,0,1,269.6,80L258.4,80A2.4,2.4,0,0,0,256,82.4L256,93.6A2.4,2.4,0,0,1,253.6,96L242.4,96A2.4,2.4,0,0,1,240,93.6L240,82.4A2.4,2.4,0,0,0,237.6,80L226.4,80A2.4,2.4,0,0,1,224,77.6L224,66.4A2.4,2.4,0,0,1,226.4,64L237.6,64A2.4,2.4,0,0,0,240,61.6L240,48L240,34.4A2.4,2.4,0,0,0,237.6,32L226.4,32A2.4,2.4,0,0,1,224,29.6L224,18.4A2.4,2.4,0,0,1,226.4,16M226.4,240L237.6,240A2.4,2.4,0,0,1,240,242.4L240,253.6A2.4,2.4,0,0,1,237.6,256L226.4,256A2.4,2.4,0,0,1,224,253.6L224,242.4A2.4,2.4,0,0,1,226.4,240M226.4,384L237.6,384A2.4,2.4,0,0,1,240,386.4L240,397.6A2.4,2.4,0,0,1,237.6,400L226.4,400A2.4,2.4,0,0,1,224,397.6L224,386.4A2.4,2.4,0,0,1,226.4,384M226.4,448L237.6,448A2.4,2.4,0,0,1,240,450.4L240,464L240,477.6A2.4,2.4,0,0,0,242.4,480L253.6,480A2.4,2.4,0,0,1,256,482.4L256,493.6A2.4,2.4,0,0,1,253.6,496L240,496L226.4,496A2.4,2.4,0,0,1,224,493.6L224,480L224,464L224,450.4A2.4,2.4,0,0,1,226.4,448M242.4,176L253.6,176A2.4,2.4,0,0,1,256,178.4L256,189.6A2.4,2.4,0,0,1,253.6,192L242.4,192A2.4,2.4,0,0,1,240,189.6L240,178.4A2.4,2.4,0,0,1,242.4,176M242.4,256L253.6,256A2.4,2.4,0,0,0,256,253.6L256,242.4A2.4,2.4,0,0,1,258.4,240L269.6,240A2.4,2.4,0,0,0,272,237.6L272,226.4A2.4,2.4,0,0,1,274.4,224L285.6,224A2.4,2.4,0,0,0,288,221.6L288,208L288,192L288,176L288,162.4A2.4,2.4,0,0,1,290.4,160L301.6,160A2.4,2.4,0,0,1,304,162.4L304,173.6A2.4,2.4,0,0,0,306.4,176L317.6,176A2.4,2.4,0,0,1,320,178.4L320,189.6A2.4,2.4,0,0,1,317.6,192L306.4,192A2.4,2.4,0,0,0,304,194.4L304,208L304,224L304,237.6A2.4,2.4,0,0,1,301.6,240L290.4,240A2.4,2.4,0,0,0,288,242.4L288,253.6A2.4,2.4,0,0,1,285.6,256L274.4,256A2.4,2.4,0,0,0,272,258.4L272,269.6A2.4,2.4,0,0,1,269.6,272L256,272L242.4,272A2.4,2.4,0,0,1,240,269.6L240,258.4A2.4,2.4,0,0,1,242.4,256M242.4,288L253.6,288A2.4,2.4,0,0,1,256,290.4L256,301.6A2.4,2.4,0,0,1,253.6,304L242.4,304A2.4,2.4,0,0,1,240,301.6L240,290.4A2.4,2.4,0,0,1,242.4,288M242.4,368L253.6,368A2.4,2.4,0,0,1,256,370.4L256,381.6A2.4,2.4,0,0,1,253.6,384L242.4,384A2.4,2.4,0,0,1,240,381.6L240,370.4A2.4,2.4,0,0,1,242.4,368M242.4,400L253.6,400A2.4,2.4,0,0,0,256,397.6L256,386.4A2.4,2.4,0,0,1,258.4,384L272,384L285.6,384A2.4,2.4,0,0,1,288,386.4L288,397.6A2.4,2.4,0,0,1,285.6,400L274.4,400A2.4,2.4,0,0,0,272,402.4L272,413.6A2.4,2.4,0,0,1,269.6,416L256,416L242.4,416A2.4,2.4,0,0,1,240,413.6L240,402.4A2.4,2.4,0,0,1,242.4,400M242.4,432L253.6,432A2.4,2.4,0,0,1,256,434.4L256,445.6A2.4,2.4,0,0,1,253.6,448L242.4,448A2.4,2.4,0,0,1,240,445.6L240,434.4A2.4,2.4,0,0,1,242.4,432M242.4,512L253.6,512A2.4,2.4,0,0,1,256,514.4L256,525.6A2.4,2.4,0,0,1,253.6,528L242.4,528A2.4,2.4,0,0,1,240,525.6L240,514.4A2.4,2.4,0,0,1,242.4,512M258.4,96L269.6,96A2.4,2.4,0,0,1,272,98.4L272,109.6A2.4,2.4,0,0,1,269.6,112L258.4,112A2.4,2.4,0,0,1,256,109.6L256,98.4A2.4,2.4,0,0,1,258.4,96M258.4,192L269.6,192A2.4,2.4,0,0,1,272,194.4L272,205.6A2.4,2.4,0,0,1,269.6,208L258.4,208A2.4,2.4,0,0,1,256,205.6L256,194.4A2.4,2.4,0,0,1,258.4,192M258.4,448L272,448L285.6,448A2.4,2.4,0,0,0,288,445.6L288,432L288,416L288,402.4A2.4,2.4,0,0,1,290.4,400L304,400L317.6,400A2.4,2.4,0,0,1,320,402.4L320,413.6A2.4,2.4,0,0,1,317.6,416L306.4,416A2.4,2.4,0,0,0,304,418.4L304,429.6A2.4,2.4,0,0,0,306.4,432L317.6,432A2.4,2.4,0,0,1,320,434.4L320,445.6A2.4,2.4,0,0,1,317.6,448L306.4,448A2.4,2.4,0,0,0,304,450.4L304,461.6A2.4,2.4,0,0,0,306.4,464L317.6,464A2.4,2.4,0,0,1,320,466.4L320,477.6A2.4,2.4,0,0,0,322.4,480L333.6,480A2.4,2.4,0,0,1,336,482.4L336,496L336,509.6A2.4,2.4,0,0,1,333.6,512L322.4,512A2.4,2.4,0,0,1,320,509.6L320,498.4A2.4,2.4,0,0,0,317.6,496L306.4,496A2.4,2.4,0,0,1,304,493.6L304,482.4A2.4,2.4,0,0,0,301.6,480L290.4,480A2.4,2.4,0,0,1,288,477.6L288,466.4A2.4,2.4,0,0,0,285.6,464L274.4,464A2.4,2.4,0,0,0,272,466.4L272,477.6A2.4,2.4,0,0,1,269.6,480L258.4,480A2.4,2.4,0,0,1,256,477.6L256,464L256,450.4A2.4,2.4,0,0,1,258.4,448M258.4,496L269.6,496A2.4,2.4,0,0,0,272,493.6L272,482.4A2.4,2.4,0,0,1,274.4,480L285.6,480A2.4,2.4,0,0,1,288,482.4L288,496L288,512L288,525.6A2.4,2.4,0,0,1,285.6,528L274.4,528A2.4,2.4,0,0,1,272,525.6L272,514.4A2.4,2.4,0,0,0,269.6,512L258.4,512A2.4,2.4,0,0,1,256,509.6L256,498.4A2.4,2.4,0,0,1,258.4,496M274.4,32L285.6,32A2.4,2.4,0,0,1,288,34.4L288,45.6A2.4,2.4,0,0,0,290.4,48L301.6,48A2.4,2.4,0,0,1,304,50.4L304,61.6A2.4,2.4,0,0,1,301.6,64L288,64L274.4,64A2.4,2.4,0,0,1,272,61.6L272,48L272,34.4A2.4,2.4,0,0,1,274.4,32M274.4,128L285.6,128A2.4,2.4,0,0,1,288,130.4L288,144L288,157.6A2.4,2.4,0,0,1,285.6,160L274.4,160A2.4,2.4,0,0,1,272,157.6L272,144L272,130.4A2.4,2.4,0,0,1,274.4,128M274.4,288L288,288L301.6,288A2.4,2.4,0,0,1,304,290.4L304,301.6A2.4,2.4,0,0,1,301.6,304L288,304L274.4,304A2.4,2.4,0,0,1,272,301.6L272,290.4A2.4,2.4,0,0,1,274.4,288M290.4,80L301.6,80A2.4,2.4,0,0,0,304,77.6L304,66.4A2.4,2.4,0,0,1,306.4,64L317.6,64A2.4,2.4,0,0,0,320,61.6L320,50.4A2.4,2.4,0,0,0,317.6,48L306.4,48A2.4,2.4,0,0,1,304,45.6L304,32L304,16L304,2.4A2.4,2.4,0,0,1,306.4,0L320,0L333.6,0A2.4,2.4,0,0,1,336,2.4L336,13.6A2.4,2.4,0,0,1,333.6,16L322.4,16A2.4,2.4,0,0,0,320,18.4L320,29.6A2.4,2.4,0,0,0,322.4,32L333.6,32A2.4,2.4,0,0,0,336,29.6L336,18.4A2.4,2.4,0,0,1,338.4,16L349.6,16A2.4,2.4,0,0,0,352,13.6L352,2.4A2.4,2.4,0,0,1,354.4,0L365.6,0A2.4,2.4,0,0,1,368,2.4L368,16L368,29.6A2.4,2.4,0,0,1,365.6,32L354.4,32A2.4,2.4,0,0,0,352,34.4L352,48L352,64L352,80L352,93.6A2.4,2.4,0,0,1,349.6,96L338.4,96A2.4,2.4,0,0,1,336,93.6L336,82.4A2.4,2.4,0,0,0,333.6,80L322.4,80A2.4,2.4,0,0,0,320,82.4L320,93.6A2.4,2.4,0,0,1,317.6,96L306.4,96A2.4,2.4,0,0,0,304,98.4L304,109.6A2.4,2.4,0,0,1,301.6,112L290.4,112A2.4,2.4,0,0,1,288,109.6L288,96L288,82.4A2.4,2.4,0,0,1,290.4,80M306.4,112L317.6,112A2.4,2.4,0,0,1,320,114.4L320,128L320,141.6A2.4,2.4,0,0,0,322.4,144L333.6,144A2.4,2.4,0,0,1,336,146.4L336,157.6A2.4,2.4,0,0,0,338.4,160L349.6,160A2.4,2.4,0,0,0,352,157.6L352,144L352,130.4A2.4,2.4,0,0,1,354.4,128L365.6,128A2.4,2.4,0,0,1,368,130.4L368,141.6A2.4,2.4,0,0,0,370.4,144L384,144L397.6,144A2.4,2.4,0,0,0,400,141.6L400,130.4A2.4,2.4,0,0,1,402.4,128L413.6,128A2.4,2.4,0,0,1,416,130.4L416,141.6A2.4,2.4,0,0,0,418.4,144L429.6,144A2.4,2.4,0,0,0,432,141.6L432,130.4A2.4,2.4,0,0,1,434.4,128L448,128L464,128L480,128L496,128L509.6,128A2.4,2.4,0,0,1,512,130.4L512,141.6A2.4,2.4,0,0,1,509.6,144L498.4,144A2.4,2.4,0,0,0,496,146.4L496,160L496,173.6A2.4,2.4,0,0,1,493.6,176L482.4,176A2.4,2.4,0,0,0,480,178.4L480,189.6A2.4,2.4,0,0,1,477.6,192L466.4,192A2.4,2.4,0,0,1,464,189.6L464,178.4A2.4,2.4,0,0,0,461.6,176L450.4,176A2.4,2.4,0,0,0,448,178.4L448,189.6A2.4,2.4,0,0,1,445.6,192L434.4,192A2.4,2.4,0,0,0,432,194.4L432,208L432,224L432,240L432,256L432,269.6A2.4,2.4,0,0,0,434.4,272L445.6,272A2.4,2.4,0,0,1,448,274.4L448,288L448,301.6A2.4,2.4,0,0,1,445.6,304L434.4,304A2.4,2.4,0,0,1,432,301.6L432,290.4A2.4,2.4,0,0,0,429.6,288L418.4,288A2.4,2.4,0,0,1,416,285.6L416,272L416,258.4A2.4,2.4,0,0,0,413.6,256L402.4,256A2.4,2.4,0,0,1,400,253.6L400,240L400,226.4A2.4,2.4,0,0,1,402.4,224L413.6,224A2.4,2.4,0,0,0,416,221.6L416,208L416,192L416,178.4A2.4,2.4,0,0,1,418.4,176L429.6,176A2.4,2.4,0,0,0,432,173.6L432,162.4A2.4,2.4,0,0,0,429.6,160L416,160L400,160L386.4,160A2.4,2.4,0,0,0,384,162.4L384,173.6A2.4,2.4,0,0,0,386.4,176L397.6,176A2.4,2.4,0,0,1,400,178.4L400,192L400,205.6A2.4,2.4,0,0,1,397.6,208L386.4,208A2.4,2.4,0,0,1,384,205.6L384,194.4A2.4,2.4,0,0,0,381.6,192L370.4,192A2.4,2.4,0,0,0,368,194.4L368,205.6A2.4,2.4,0,0,0,370.4,208L381.6,208A2.4,2.4,0,0,1,384,210.4L384,224L384,237.6A2.4,2.4,0,0,1,381.6,240L370.4,240A2.4,2.4,0,0,1,368,237.6L368,226.4A2.4,2.4,0,0,0,365.6,224L352,224L338.4,224A2.4,2.4,0,0,1,336,221.6L336,208L336,194.4A2.4,2.4,0,0,1,338.4,192L349.6,192A2.4,2.4,0,0,0,352,189.6L352,178.4A2.4,2.4,0,0,0,349.6,176L336,176L322.4,176A2.4,2.4,0,0,1,320,173.6L320,162.4A2.4,2.4,0,0,0,317.6,160L306.4,160A2.4,2.4,0,0,1,304,157.6L304,144L304,128L304,114.4A2.4,2.4,0,0,1,306.4,112M306.4,256L317.6,256A2.4,2.4,0,0,1,320,258.4L320,269.6A2.4,2.4,0,0,1,317.6,272L306.4,272A2.4,2.4,0,0,1,304,269.6L304,258.4A2.4,2.4,0,0,1,306.4,256M322.4,96L333.6,96A2.4,2.4,0,0,1,336,98.4L336,109.6A2.4,2.4,0,0,1,333.6,112L322.4,112A2.4,2.4,0,0,1,320,109.6L320,98.4A2.4,2.4,0,0,1,322.4,96M322.4,224L333.6,224A2.4,2.4,0,0,1,336,226.4L336,240L336,253.6A2.4,2.4,0,0,1,333.6,256L322.4,256A2.4,2.4,0,0,1,320,253.6L320,240L320,226.4A2.4,2.4,0,0,1,322.4,224M322.4,272L333.6,272A2.4,2.4,0,0,1,336,274.4L336,285.6A2.4,2.4,0,0,1,333.6,288L322.4,288A2.4,2.4,0,0,1,320,285.6L320,274.4A2.4,2.4,0,0,1,322.4,272M322.4,416L333.6,416A2.4,2.4,0,0,1,336,418.4L336,429.6A2.4,2.4,0,0,1,333.6,432L322.4,432A2.4,2.4,0,0,1,320,429.6L320,418.4A2.4,2.4,0,0,1,322.4,416M322.4,448L333.6,448A2.4,2.4,0,0,0,336,445.6L336,434.4A2.4,2.4,0,0,1,338.4,432L349.6,432A2.4,2.4,0,0,1,352,434.4L352,448L352,464L352,477.6A2.4,2.4,0,0,1,349.6,480L338.4,480A2.4,2.4,0,0,1,336,477.6L336,466.4A2.4,2.4,0,0,0,333.6,464L322.4,464A2.4,2.4,0,0,1,320,461.6L320,450.4A2.4,2.4,0,0,1,322.4,448M338.4,288L349.6,288A2.4,2.4,0,0,1,352,290.4L352,301.6A2.4,2.4,0,0,1,349.6,304L338.4,304A2.4,2.4,0,0,1,336,301.6L336,290.4A2.4,2.4,0,0,1,338.4,288M338.4,400L352,400L365.6,400A2.4,2.4,0,0,0,368,397.6L368,386.4A2.4,2.4,0,0,1,370.4,384L384,384L400,384L416,384L429.6,384A2.4,2.4,0,0,0,432,381.6L432,370.4A2.4,2.4,0,0,0,429.6,368L416,368L402.4,368A2.4,2.4,0,0,1,400,365.6L400,354.4A2.4,2.4,0,0,1,402.4,352L416,352L432,352L448,352L461.6,352A2.4,2.4,0,0,1,464,354.4L464,365.6A2.4,2.4,0,0,1,461.6,368L450.4,368A2.4,2.4,0,0,0,448,370.4L448,381.6A2.4,2.4,0,0,0,450.4,384L461.6,384A2.4,2.4,0,0,1,464,386.4L464,397.6A2.4,2.4,0,0,0,466.4,400L477.6,400A2.4,2.4,0,0,1,480,402.4L480,413.6A2.4,2.4,0,0,0,482.4,416L493.6,416A2.4,2.4,0,0,1,496,418.4L496,429.6A2.4,2.4,0,0,1,493.6,432L482.4,432A2.4,2.4,0,0,0,480,434.4L480,445.6A2.4,2.4,0,0,1,477.6,448L466.4,448A2.4,2.4,0,0,0,464,450.4L464,461.6A2.4,2.4,0,0,0,466.4,464L480,464L496,464L509.6,464A2.4,2.4,0,0,1,512,466.4L512,477.6A2.4,2.4,0,0,1,509.6,480L496,480L480,480L464,480L448,480L434.4,480A2.4,2.4,0,0,1,432,477.6L432,466.4A2.4,2.4,0,0,0,429.6,464L418.4,464A2.4,2.4,0,0,0,416,466.4L416,477.6A2.4,2.4,0,0,1,413.6,480L402.4,480A2.4,2.4,0,0,1,400,477.6L400,466.4A2.4,2.4,0,0,0,397.6,464L386.4,464A2.4,2.4,0,0,0,384,466.4L384,477.6A2.4,2.4,0,0,1,381.6,480L370.4,480A2.4,2.4,0,0,1,368,477.6L368,464L368,450.4A2.4,2.4,0,0,1,370.4,448L381.6,448A2.4,2.4,0,0,0,384,445.6L384,432L384,418.4A2.4,2.4,0,0,0,381.6,416L368,416L352,416L338.4,416A2.4,2.4,0,0,1,336,413.6L336,402.4A2.4,2.4,0,0,1,338.4,400M354.4,96L365.6,96A2.4,2.4,0,0,1,368,98.4L368,109.6A2.4,2.4,0,0,1,365.6,112L354.4,112A2.4,2.4,0,0,1,352,109.6L352,98.4A2.4,2.4,0,0,1,354.4,96M354.4,240L365.6,240A2.4,2.4,0,0,1,368,242.4L368,256L368,269.6A2.4,2.4,0,0,1,365.6,272L354.4,272A2.4,2.4,0,0,1,352,269.6L352,256L352,242.4A2.4,2.4,0,0,1,354.4,240M354.4,368L365.6,368A2.4,2.4,0,0,1,368,370.4L368,381.6A2.4,2.4,0,0,1,365.6,384L354.4,384A2.4,2.4,0,0,1,352,381.6L352,370.4A2.4,2.4,0,0,1,354.4,368M354.4,496L368,496L384,496L400,496L416,496L429.6,496A2.4,2.4,0,0,1,432,498.4L432,512L432,525.6A2.4,2.4,0,0,1,429.6,528L416,528L400,528L386.4,528A2.4,2.4,0,0,1,384,525.6L384,514.4A2.4,2.4,0,0,0,381.6,512L368,512L354.4,512A2.4,2.4,0,0,1,352,509.6L352,498.4A2.4,2.4,0,0,1,354.4,496M370.4,48L381.6,48A2.4,2.4,0,0,1,384,50.4L384,64L384,80L384,93.6A2.4,2.4,0,0,1,381.6,96L370.4,96A2.4,2.4,0,0,1,368,93.6L368,80L368,64L368,50.4A2.4,2.4,0,0,1,370.4,48M370.4,112L381.6,112A2.4,2.4,0,0,0,384,109.6L384,98.4A2.4,2.4,0,0,1,386.4,96L397.6,96A2.4,2.4,0,0,1,400,98.4L400,112L400,125.6A2.4,2.4,0,0,1,397.6,128L384,128L370.4,128A2.4,2.4,0,0,1,368,125.6L368,114.4A2.4,2.4,0,0,1,370.4,112M370.4,272L381.6,272A2.4,2.4,0,0,1,384,274.4L384,288L384,304L384,320L384,333.6A2.4,2.4,0,0,1,381.6,336L370.4,336A2.4,2.4,0,0,1,368,333.6L368,320L368,304L368,288L368,274.4A2.4,2.4,0,0,1,370.4,272M370.4,352L381.6,352A2.4,2.4,0,0,1,384,354.4L384,365.6A2.4,2.4,0,0,1,381.6,368L370.4,368A2.4,2.4,0,0,1,368,365.6L368,354.4A2.4,2.4,0,0,1,370.4,352M386.4,0L397.6,0A2.4,2.4,0,0,1,400,2.4L400,13.6A2.4,2.4,0,0,1,397.6,16L386.4,16A2.4,2.4,0,0,1,384,13.6L384,2.4A2.4,2.4,0,0,1,386.4,0M386.4,32L397.6,32A2.4,2.4,0,0,1,400,34.4L400,45.6A2.4,2.4,0,0,1,397.6,48L386.4,48A2.4,2.4,0,0,1,384,45.6L384,34.4A2.4,2.4,0,0,1,386.4,32M400,402.4L400,416L400,432L400,445.6A2.4,2.4,0,0,0,402.4,448L416,448L432,448L445.6,448A2.4,2.4,0,0,0,448,445.6L448,432L448,416L448,402.4A2.4,2.4,0,0,0,445.6,400L432,400L416,400L402.4,400A2.4,2.4,0,0,0,400,402.4M418.4,304L429.6,304A2.4,2.4,0,0,1,432,306.4L432,317.6A2.4,2.4,0,0,1,429.6,320L418.4,320A2.4,2.4,0,0,1,416,317.6L416,306.4A2.4,2.4,0,0,1,418.4,304M418.4,416L429.6,416A2.4,2.4,0,0,1,432,418.4L432,429.6A2.4,2.4,0,0,1,429.6,432L418.4,432A2.4,2.4,0,0,1,416,429.6L416,418.4A2.4,2.4,0,0,1,418.4,416M448,146.4L448,157.6A2.4,2.4,0,0,0,450.4,160L461.6,160A2.4,2.4,0,0,0,464,157.6L464,146.4A2.4,2.4,0,0,0,461.6,144L450.4,144A2.4,2.4,0,0,0,448,146.4M434.4,320L445.6,320A2.4,2.4,0,0,1,448,322.4L448,333.6A2.4,2.4,0,0,1,445.6,336L434.4,336A2.4,2.4,0,0,1,432,333.6L432,322.4A2.4,2.4,0,0,1,434.4,320M450.4,192L461.6,192A2.4,2.4,0,0,1,464,194.4L464,205.6A2.4,2.4,0,0,1,461.6,208L450.4,208A2.4,2.4,0,0,1,448,205.6L448,194.4A2.4,2.4,0,0,1,450.4,192M450.4,224L464,224L477.6,224A2.4,2.4,0,0,1,480,226.4L480,237.6A2.4,2.4,0,0,1,477.6,240L464,240L450.4,240A2.4,2.4,0,0,1,448,237.6L448,226.4A2.4,2.4,0,0,1,450.4,224M450.4,256L464,256L480,256L493.6,256A2.4,2.4,0,0,0,496,253.6L496,242.4A2.4,2.4,0,0,1,498.4,240L509.6,240A2.4,2.4,0,0,0,512,237.6L512,224L512,210.4A2.4,2.4,0,0,0,509.6,208L496,208L482.4,208A2.4,2.4,0,0,1,480,205.6L480,194.4A2.4,2.4,0,0,1,482.4,192L496,192L509.6,192A2.4,2.4,0,0,0,512,189.6L512,176L512,160L512,146.4A2.4,2.4,0,0,1,514.4,144L525.6,144A2.4,2.4,0,0,1,528,146.4L528,160L528,176L528,192L528,208L528,224L528,240L528,253.6A2.4,2.4,0,0,1,525.6,256L514.4,256A2.4,2.4,0,0,0,512,258.4L512,269.6A2.4,2.4,0,0,0,514.4,272L525.6,272A2.4,2.4,0,0,1,528,274.4L528,288L528,301.6A2.4,2.4,0,0,1,525.6,304L514.4,304A2.4,2.4,0,0,1,512,301.6L512,290.4A2.4,2.4,0,0,0,509.6,288L498.4,288A2.4,2.4,0,0,0,496,290.4L496,301.6A2.4,2.4,0,0,1,493.6,304L482.4,304A2.4,2.4,0,0,0,480,306.4L480,317.6A2.4,2.4,0,0,1,477.6,320L464,320L450.4,320A2.4,2.4,0,0,1,448,317.6L448,306.4A2.4,2.4,0,0,1,450.4,304L461.6,304A2.4,2.4,0,0,0,464,301.6L464,290.4A2.4,2.4,0,0,1,466.4,288L477.6,288A2.4,2.4,0,0,0,480,285.6L480,274.4A2.4,2.4,0,0,0,477.6,272L464,272L450.4,272A2.4,2.4,0,0,1,448,269.6L448,258.4A2.4,2.4,0,0,1,450.4,256M466.4,368L477.6,368A2.4,2.4,0,0,1,480,370.4L480,381.6A2.4,2.4,0,0,1,477.6,384L466.4,384A2.4,2.4,0,0,1,464,381.6L464,370.4A2.4,2.4,0,0,1,466.4,368M482.4,336L493.6,336A2.4,2.4,0,0,1,496,338.4L496,352L496,365.6A2.4,2.4,0,0,1,493.6,368L482.4,368A2.4,2.4,0,0,1,480,365.6L480,352L480,338.4A2.4,2.4,0,0,1,482.4,336M498.4,304L509.6,304A2.4,2.4,0,0,1,512,306.4L512,317.6A2.4,2.4,0,0,0,514.4,320L525.6,320A2.4,2.4,0,0,1,528,322.4L528,333.6A2.4,2.4,0,0,1,525.6,336L512,336L498.4,336A2.4,2.4,0,0,1,496,333.6L496,320L496,306.4A2.4,2.4,0,0,1,498.4,304M498.4,432L509.6,432A2.4,2.4,0,0,0,512,429.6L512,416L512,400L512,386.4A2.4,2.4,0,0,1,514.4,384L525.6,384A2.4,2.4,0,0,1,528,386.4L528,400L528,416L528,432L528,445.6A2.4,2.4,0,0,1,525.6,448L512,448L498.4,448A2.4,2.4,0,0,1,496,445.6L496,434.4A2.4,2.4,0,0,1,498.4,432M514.4,352L525.6,352A2.4,2.4,0,0,1,528,354.4L528,365.6A2.4,2.4,0,0,1,525.6,368L514.4,368A2.4,2.4,0,0,1,512,365.6L512,354.4A2.4,2.4,0,0,1,514.4,352Z" />
<path d="M4.7253,9.0689C6.179,9.0436 6.4149,7.6154 6.4149,6.769C6.4149,5.5163 5.775,5.0788 5,5C4.0425,5.4242 3.3403,6.146 3.2555,7.2606C3.2416,7.4443 3.237,7.6894 3.2516,7.9757C3.2906,8.7383 3.8493,9.0843 4.7253,9.0689 M 12.2447 10.8068 C 11.2047 10.8068 10.1118 10.1673 10.06 8.9707 C 8.8774 10.2223 7.0538 10.8186 4.7253 10.8186 C 2.3769 10.8186 1.396 9.2175 1.396 7.9703 C 1.4554 3.8126 1.3605 2.255 1.341 1.9353 C 1.3393 1.907 1.3381 1.8884 1.3377 1.8785 L 1.3373 1.8677 C 1.3313 1.7096 1.3224 1.4733 1.172 1.4572 C 1.0786 1.4472 1.0183 1.4757 0.911 1.6094 C 0.75 1.8233 0.425 1.908 0.2273 1.7937 C -0.0116 1.6555 -0.0562 1.3505 0.0647 1.0697 C 0.4002 0.3212 0.9379 -0.01 1.6625 0.0003 C 2.9146 0.0182 3.2738 0.8359 3.2738 1.8575 C 3.2738 1.8575 3.246 3.3292 3.246 4.1579 C 3.689 3.7969 4.3397 3.4098 5.4266 3.4098 C 7.6899 3.4098 9.1267 6.2118 7.6503 8.8925 C 9.5428 8.0197 9.9378 6.5164 10.0112 5.0238 L 10.0043 4.5203 C 10.0043 3.9552 10.3688 3.4767 10.9361 3.4767 C 11.5034 3.4767 11.8802 3.9877 11.86 4.5271 C 11.7919 6.3438 11.7644 7.5395 11.7644 8.1722 C 11.7644 8.5384 11.9642 9.0996 12.5555 9.0996 C 13.7134 9.0996 14.094 8.1922 14.1838 6.0595 C 14.1885 5.2642 14.1927 4.5997 14.1927 4.5997 C 13.6679 4.5997 13.4094 4.324 13.4094 3.9795 C 13.4094 3.635 13.683 3.3163 14.1321 3.3163 C 14.1321 3.3163 14.133 2.1182 14.133 1.622 C 14.133 1.0569 14.5715 0.5883 15.1388 0.5883 C 15.7062 0.5883 16.1567 1.0569 16.1567 1.622 C 16.1567 1.8095 16.1495 2.028 16.1416 2.2695 C 16.1315 2.5784 16.1201 2.9246 16.121 3.2909 L 16.2032 3.2905 H 16.2032 C 16.357 3.29 16.7051 3.2888 17.1681 3.2834 C 17.7198 3.2769 17.9445 3.5851 17.9445 3.9709 C 17.9445 4.3567 17.6475 4.626 17.2602 4.6276 C 16.9012 4.6291 16.1083 4.6247 16.1083 4.6247 C 16.0723 5.7674 16.0382 7.1451 16.0382 8.2475 C 16.0382 8.6451 16.3126 9.0995 16.9767 9.0995 C 18.3163 9.0995 18.8167 7.9092 18.9173 5.6498 C 18.9095 4.0766 18.8907 3.1653 18.8765 2.4785 V 2.4785 C 18.8666 1.9969 18.859 1.6258 18.859 1.2143 C 18.859 0.6493 19.3295 0.1442 19.8967 0.1442 C 20.4641 0.1442 20.8826 0.5977 20.8826 1.1627 C 20.8826 1.598 20.8651 2.1069 20.8413 2.8009 V 2.8009 V 2.801 C 20.801 3.9747 20.7425 5.6778 20.7195 8.4504 C 20.7165 8.8195 20.8967 9.0795 21.3748 9.0795 C 22.6524 9.0795 23.0066 7.6955 23.119 5.7625 C 23.1197 5.6695 23.1205 5.5785 23.1214 5.4891 L 23.1214 5.4887 C 23.1231 5.3054 23.1247 5.1289 23.1247 4.9561 C 23.1247 4.391 23.5011 3.9337 24.0686 3.9337 C 24.6359 3.9337 24.9694 4.4022 24.9694 4.9673 C 24.9694 5.3698 24.9562 5.7464 24.9427 6.1348 C 24.9307 6.4777 24.9184 6.8299 24.9146 7.2176 C 24.9047 8.2151 25.2455 9.0938 26.0756 9.0914 C 26.8726 9.0891 27.7479 8.7536 27.7691 7.045 C 27.7751 6.5701 27.7683 6.2053 27.7615 5.8371 V 5.837 V 5.8369 V 5.8368 C 27.7564 5.5642 27.7513 5.2897 27.7513 4.9673 C 27.7513 4.4022 28.1451 3.9337 28.7125 3.9337 C 29.2795 3.9337 29.6737 4.4022 29.6737 4.9673 C 29.6737 5.3051 29.6614 5.6415 29.6477 6.0145 V 6.0145 V 6.0146 V 6.0146 C 29.6307 6.4783 29.6117 6.9984 29.6117 7.6477 C 29.6117 7.6477 29.5769 10.0141 29.66 10.5378 C 29.9203 10.4512 30.2958 10.1968 30.6935 9.5802 C 30.9337 9.208 31.3928 9.1282 31.6758 9.293 C 32.0653 9.52 32.0514 9.9635 31.9058 10.2875 C 31.5298 11.1239 31.0409 11.6358 29.8047 12.0595 C 29.8086 13.4782 29.7098 15.5713 27.0868 15.9496 C 24.8405 16.2735 23.8244 14.9708 23.8211 13.8623 C 23.8157 12.112 25.5649 11.6022 28.0897 10.9665 L 28.0087 10.099 C 28.0087 10.099 27.4464 10.8364 26.0215 10.8008 C 24.9223 10.7733 24.1663 10.2543 23.7077 9.5213 C 23.1787 10.3901 22.3495 10.8105 21.1004 10.8105 C 20.2775 10.8105 19.4934 10.3758 19.1051 9.7457 C 18.5325 10.4308 17.7339 10.8015 16.6607 10.8015 C 15.7256 10.8015 15.0346 10.4786 14.6209 9.9746 C 14.087 10.5712 13.318 10.8068 12.2447 10.8068 Z M 28.2548 12.363 C 26.9786 12.6385 25.3798 13.0407 25.3983 13.8266 C 25.4158 14.5636 26.1767 14.6977 26.8111 14.5666 C 28.1286 14.2943 28.2816 13.5015 28.2548 12.363 Z M 11.9704 1.6249 C 11.9704 1.0544 11.5073 0.5932 10.9347 0.5932 C 10.3619 0.5932 9.8989 1.0544 9.8989 1.6249 C 9.8989 2.1953 10.3619 2.6566 10.9347 2.6566 C 11.5073 2.6566 11.9704 2.1953 11.9704 1.6249 Z" fill='#000000' transform='translate(456.000000, 492.000000) scale(2.250000, 2.250000)' />
</g>
<g id='corners-outer-1' transform="translate(0, 0) scale(5.60, 5.60) " style='fill:#000000' >
<path d="M 17.14 0 H 2 C 0.9 0 0 0.9 0 2 V 18 C 0 19.1 0.9 20 2 20 H 18 C 19.1 20 20 19.1 20 18 V 2 C 20 0.9 19.1 0 18 0 H 17.14 Z M 17.14 5.71 V 15.14 C 17.14 16.25 16.25 17.14 15.14 17.14 H 4.86 C 3.75 17.14 2.86 16.25 2.86 15.14 V 4.86 C 2.86 3.75 3.75 2.86 4.86 2.86 H 15.14 C 16.25 2.86 17.14 3.75 17.14 4.86 V 5.71 Z" />
</g>
<g id='corners-inner-1' transform="translate(32, 32) scale(5.60, 5.60) " style='fill:#000000' >
<path d="M 5.64 0 H 1 C 0.45 0 0 0.45 0 1 V 7.46 C 0 8.01 0.45 8.46 1 8.46 H 7.46 C 8.01 8.46 8.46 8.01 8.46 7.46 V 1 C 8.46 0.45 8.01 0 7.46 0 H 5.64 Z" />
</g>
<g id='corners-outer-2' transform="translate(416, 0) scale(5.60, 5.60) " style='fill:#000000' >
<path d="M 17.14 0 H 2 C 0.9 0 0 0.9 0 2 V 18 C 0 19.1 0.9 20 2 20 H 18 C 19.1 20 20 19.1 20 18 V 2 C 20 0.9 19.1 0 18 0 H 17.14 Z M 17.14 5.71 V 15.14 C 17.14 16.25 16.25 17.14 15.14 17.14 H 4.86 C 3.75 17.14 2.86 16.25 2.86 15.14 V 4.86 C 2.86 3.75 3.75 2.86 4.86 2.86 H 15.14 C 16.25 2.86 17.14 3.75 17.14 4.86 V 5.71 Z" />
</g>
<g id='corners-inner-2' transform="translate(448, 32) scale(5.60, 5.60) " style='fill:#000000' >
<path d="M 5.64 0 H 1 C 0.45 0 0 0.45 0 1 V 7.46 C 0 8.01 0.45 8.46 1 8.46 H 7.46 C 8.01 8.46 8.46 8.01 8.46 7.46 V 1 C 8.46 0.45 8.01 0 7.46 0 H 5.64 Z" />
</g>
<g id='corners-outer-3' transform="translate(0, 416) scale(5.60, 5.60) " style='fill:#000000' >
<path d="M 17.14 0 H 2 C 0.9 0 0 0.9 0 2 V 18 C 0 19.1 0.9 20 2 20 H 18 C 19.1 20 20 19.1 20 18 V 2 C 20 0.9 19.1 0 18 0 H 17.14 Z M 17.14 5.71 V 15.14 C 17.14 16.25 16.25 17.14 15.14 17.14 H 4.86 C 3.75 17.14 2.86 16.25 2.86 15.14 V 4.86 C 2.86 3.75 3.75 2.86 4.86 2.86 H 15.14 C 16.25 2.86 17.14 3.75 17.14 4.86 V 5.71 Z" />
</g>
<g id='corners-inner-3' transform="translate(32, 448) scale(5.60, 5.60) " style='fill:#000000' >
<path d="M 5.64 0 H 1 C 0.45 0 0 0.45 0 1 V 7.46 C 0 8.01 0.45 8.46 1 8.46 H 7.46 C 8.01 8.46 8.46 8.01 8.46 7.46 V 1 C 8.46 0.45 8.01 0 7.46 0 H 5.64 Z" />
</g>
</svg>
<g id="frame-sections">
				<path fill="#000000" d="M222,10a8,8,0,0,1,8,8V222a8,8,0,0,1-8,8H18a8,8,0,0,1-8-8V18a8,8,0,0,1,8-8H222m0-10H18A18,18,0,0,0,0,18V222a18,18,0,0,0,18,18H222a18,18,0,0,0,18-18V18A18,18,0,0,0,222,0Z"/>
			</g>
			</svg>